<svg id="Capa_1" enable-background="new 0 0 512.353 512.353" height="512" viewBox="0 0 512.353 512.353" width="512" xmlns="http://www.w3.org/2000/svg"><g><g><path d="m293.237 53.048c-3.257-2.563-7.972-1.996-10.531 1.26l-21.376 27.186-10.99-12.547c-2.729-3.116-7.466-3.428-10.583-.7-3.116 2.729-3.43 7.468-.7 10.583l13.902 15.872c2.193 2.504 5.285 3.924 8.521 3.924.099 0 .197-.002.295-.004 3.355-.09 6.503-1.697 8.635-4.409l24.087-30.634c2.56-3.256 1.996-7.972-1.26-10.531z"/><path d="m449.269 51.443h-127.974c-4.143 0-7.5 3.357-7.5 7.5s3.357 7.5 7.5 7.5h127.974c4.143 0 7.5-3.357 7.5-7.5s-3.357-7.5-7.5-7.5z"/><path d="m449.269 83.625h-127.974c-4.143 0-7.5 3.357-7.5 7.5s3.357 7.5 7.5 7.5h127.974c4.143 0 7.5-3.357 7.5-7.5s-3.357-7.5-7.5-7.5z"/><path d="m293.237 143.576c-3.257-2.563-7.972-1.996-10.531 1.26l-21.376 27.187-10.99-12.547c-2.729-3.116-7.466-3.429-10.583-.7-3.116 2.729-3.43 7.468-.7 10.583l13.902 15.872c2.193 2.504 5.285 3.924 8.521 3.924.099 0 .197-.002.295-.004 3.355-.09 6.503-1.697 8.635-4.409l24.087-30.634c2.56-3.256 1.996-7.972-1.26-10.532z"/><path d="m449.269 141.972h-127.974c-4.143 0-7.5 3.357-7.5 7.5s3.357 7.5 7.5 7.5h127.974c4.143 0 7.5-3.357 7.5-7.5s-3.357-7.5-7.5-7.5z"/><path d="m449.269 174.153h-127.974c-4.143 0-7.5 3.357-7.5 7.5s3.357 7.5 7.5 7.5h127.974c4.143 0 7.5-3.357 7.5-7.5s-3.357-7.5-7.5-7.5z"/><path d="m293.237 234.104c-3.257-2.563-7.972-1.997-10.531 1.26l-21.376 27.186-10.99-12.546c-2.729-3.117-7.468-3.43-10.583-.7-3.116 2.729-3.43 7.468-.7 10.583l13.901 15.87c2.192 2.505 5.285 3.925 8.522 3.925.098 0 .195-.001.292-.004 3.355-.088 6.504-1.694 8.638-4.408l24.087-30.634c2.56-3.256 1.996-7.972-1.26-10.532z"/><path d="m449.269 232.5h-127.974c-4.143 0-7.5 3.357-7.5 7.5s3.357 7.5 7.5 7.5h127.974c4.143 0 7.5-3.357 7.5-7.5s-3.357-7.5-7.5-7.5z"/><path d="m449.269 264.682h-127.974c-4.143 0-7.5 3.357-7.5 7.5s3.357 7.5 7.5 7.5h127.974c4.143 0 7.5-3.357 7.5-7.5s-3.357-7.5-7.5-7.5z"/><path d="m293.237 324.633c-3.257-2.563-7.972-1.997-10.531 1.26l-21.376 27.186-10.99-12.546c-2.729-3.117-7.468-3.43-10.583-.7-3.116 2.729-3.43 7.468-.7 10.583l13.901 15.87c2.192 2.505 5.285 3.925 8.522 3.925.098 0 .195-.001.292-.004 3.355-.088 6.504-1.694 8.638-4.408l24.087-30.634c2.56-3.257 1.996-7.973-1.26-10.532z"/><path d="m449.269 323.028h-127.974c-4.143 0-7.5 3.357-7.5 7.5s3.357 7.5 7.5 7.5h127.974c4.143 0 7.5-3.357 7.5-7.5s-3.357-7.5-7.5-7.5z"/><path d="m456.769 362.71c0-4.143-3.357-7.5-7.5-7.5h-127.974c-4.143 0-7.5 3.357-7.5 7.5s3.357 7.5 7.5 7.5h127.974c4.143 0 7.5-3.357 7.5-7.5z"/><path d="m293.237 415.161c-3.257-2.563-7.972-1.997-10.531 1.26l-21.376 27.186-10.99-12.546c-2.729-3.117-7.468-3.431-10.583-.7-3.116 2.729-3.43 7.468-.7 10.583l13.901 15.87c2.192 2.505 5.285 3.925 8.522 3.925.098 0 .195-.001.292-.004 3.355-.088 6.504-1.694 8.638-4.408l24.087-30.634c2.56-3.256 1.996-7.972-1.26-10.532z"/><path d="m372.34 413.557h-51.045c-4.143 0-7.5 3.357-7.5 7.5s3.357 7.5 7.5 7.5h51.045c4.143 0 7.5-3.357 7.5-7.5s-3.357-7.5-7.5-7.5z"/><path d="m372.34 445.738h-51.045c-4.143 0-7.5 3.357-7.5 7.5s3.357 7.5 7.5 7.5h51.045c4.143 0 7.5-3.357 7.5-7.5s-3.357-7.5-7.5-7.5z"/><path d="m478.509 0h-45.333c-4.143 0-7.5 3.357-7.5 7.5s3.357 7.5 7.5 7.5h45.333c1.379 0 2.5 1.121 2.5 2.5v409.091h-48.986c-13.479 0-24.446 10.966-24.446 24.445v46.146h-240.624c3.23-5.043 5.113-11.029 5.113-17.449v-125.895c3.919 2.029 8.375 3.183 13.103 3.183 15.322 0 27.788-12.466 27.788-27.789v-72.558c0-21.566-6.854-42.037-19.821-59.201-12.539-16.598-30.364-29.015-50.191-34.964-.885-.266-1.503-1.126-1.503-2.092v-5.769c24.772-10.897 42.12-35.661 42.12-64.414 0-29.286-17.994-54.439-43.503-65.009v-7.725c0-1.379 1.121-2.5 2.5-2.5h255.868c4.143 0 7.5-3.357 7.5-7.5s-3.357-7.5-7.5-7.5h-255.869c-9.649 0-17.5 7.851-17.5 17.5v3.409c-3.852-.656-7.804-1.016-11.84-1.016-38.787 0-70.343 31.556-70.343 70.343 0 29.848 18.695 55.396 44.983 65.595v4.587c0 .966-.618 1.826-1.503 2.092-10.454 3.138-20.261 7.977-29.147 14.384-3.36 2.423-4.12 7.11-1.698 10.471 2.423 3.36 7.11 4.118 10.471 1.697 7.529-5.429 15.835-9.528 24.685-12.185 7.18-2.152 12.193-8.921 12.193-16.459v-.608c3.382.501 6.84.769 10.359.769 4.521 0 8.937-.445 13.223-1.264v1.103c0 7.538 5.015 14.307 12.193 16.459 16.795 5.04 31.9 15.566 42.532 29.639 10.984 14.539 16.79 31.883 16.79 50.159v72.558c0 7.052-5.736 12.789-12.788 12.789-6.576 0-12.203-4.92-13.103-11.076v-83.726c0-4.143-3.357-7.5-7.5-7.5s-7.5 3.357-7.5 7.5v232.513c0 9.621-7.828 17.449-17.449 17.449s-17.449-7.828-17.449-17.449v-135.31c0-4.142-3.357-7.499-7.499-7.5-.001 0 0 0-.001 0-4.141 0-7.499 3.356-7.5 7.498l-.034 135.312c0 9.621-7.828 17.449-17.449 17.449s-17.449-7.828-17.449-17.449v-233.79c0-4.143-3.357-7.5-7.5-7.5s-7.5 3.357-7.5 7.5l-.059 82.62c0 7.169-6.096 13.458-13.044 13.458-7.052 0-12.789-5.737-12.789-12.789v-72.558c0-15.673 4.374-30.939 12.649-44.149 2.198-3.511 1.136-8.139-2.375-10.338-3.511-2.195-8.139-1.136-10.338 2.375-9.771 15.6-14.937 33.62-14.937 52.112v72.558c0 15.323 12.466 27.789 27.789 27.789 4.696 0 9.166-1.247 13.103-3.421v126.132c0 17.893 14.557 32.449 32.449 32.449 10.028 0 19.01-4.573 24.967-11.743 5.957 7.17 14.937 11.743 24.966 11.743h265.105c5.65 0 11.421 1.165 16.072-2.585 2.184-1.761 4.141-3.926 6.175-5.854 8.547-8.103 53.011-50.262 66.701-63.236 1.494-1.416 2.34-3.384 2.34-5.442v-417.564c0-9.649-7.85-17.5-17.5-17.5zm-365.291 145.579c-30.516 0-55.343-24.827-55.343-55.344 0-30.516 24.827-55.343 55.343-55.343s55.343 24.827 55.343 55.343c0 30.517-24.827 55.344-55.343 55.344zm309.359 341.489v-36.032c0-5.208 4.237-9.445 9.446-9.445h37.862z"/><path d="m126.022 118.652c-3.298-2.507-8.002-1.865-10.51 1.432-.156.206-.508.551-1.107.551-.601 0-.954-.349-1.111-.557-2.495-3.307-7.197-3.963-10.504-1.469-3.307 2.495-3.964 7.198-1.469 10.504 3.081 4.084 7.973 6.521 13.084 6.521 5.165 0 9.921-2.359 13.049-6.473 2.506-3.296 1.866-8.002-1.432-10.509z"/></g></g></svg>